<?xml version="1.0" encoding="UTF-8" standalone="no" ?>
<!DOCTYPE svg PUBLIC "-//W3C//DTD SVG 1.1//EN" "http://www.w3.org/Graphics/SVG/1.1/DTD/svg11.dtd">
<svg xmlns="http://www.w3.org/2000/svg" xmlns:xlink="http://www.w3.org/1999/xlink" version="1.1" width="300" height="300" viewBox="0 0 500 500" xml:space="preserve">
<desc>Created with Fabric.js 5.3.0</desc>
<defs>
</defs>
<g transform="matrix(1 0 0 1 193.7212863706 222.0999234303)" id="9GTNgXKmnH4CIYpgX1GPZ"  >
<path style="stroke: rgb(0,0,0); stroke-width: 0; stroke-dasharray: none; stroke-linecap: round; stroke-dashoffset: 0; stroke-linejoin: round; stroke-miterlimit: 10; fill: rgb(233,196,106); fill-rule: nonzero; opacity: 1;" vector-effect="non-scaling-stroke"  transform=" translate(-193.7212863706, -222.0999234303)" d="M 170.36853445635532 48.237897396630935 Q 170.36753445635532 48.23889739663093 143.95099540581933 61.63859111791731 Q 117.53445635528333 75.03828483920368 111.79173047473202 78.86676875957122 Q 106.04900459418072 82.69525267993875 101.45482388973967 86.14088820826953 Q 96.86064318529863 89.58652373660031 95.32924961715162 90.73506891271057 Q 93.79785604900461 91.88361408882083 90.73506891271057 94.94640122511487 Q 87.67228177641654 98.00918836140889 85.37519142419602 100.68912710566616 Q 83.0781010719755 103.36906584992343 80.78101071975497 106.43185298621745 Q 78.48392036753445 109.49464012251148 73.50689127105666 116.7687595712098 Q 68.52986217457887 124.04287901990811 65.08422664624808 129.78560490045942 Q 61.6385911179173 135.52833078101074 59.72434915773354 141.6539050535988 Q 57.81010719754978 147.77947932618684 55.89586523736601 153.90505359877488 Q 53.98162327718224 160.03062787136295 53.215926493108725 165.77335375191427 Q 52.45022970903521 171.51607963246556 51.684532924961715 177.6416539050536 Q 50.91883614088822 183.76722817764167 50.153139356814705 189.89280245022974 Q 49.38744257274119 196.01837672281778 49.004594180704444 200.99540581929557 Q 48.621745788667695 205.9724349157734 47.85604900459418 210.94946401225118 Q 47.09035222052067 215.92649310872898 46.70750382848392 221.6692189892803 Q 46.32465543644717 227.4119448698316 46.32465543644717 231.62327718223588 Q 46.32465543644717 235.83460949464015 46.32465543644717 239.66309341500767 Q 46.32465543644717 243.4915773353752 47.09035222052067 248.85145482388975 Q 47.85604900459417 254.2113323124043 49.00459418070443 259.1883614088821 Q 50.15313935681469 264.1653905053599 51.684532924961715 268.7595712098009 Q 53.21592649310874 273.35375191424197 54.364471669219 276.79938744257277 Q 55.51301684532926 280.24502297090356 56.27871362940276 283.69065849923436 Q 57.04441041347626 287.1362940275651 57.42725880551302 288.28483920367535 Q 57.81010719754978 289.43338437978565 57.81010719754978 289.8162327718224 Q 57.81010719754978 290.19908116385915 57.81010719754978 290.5819295558959 Q 57.81010719754978 290.96477794793265 58.958652373660044 294.0275650842267 Q 60.107197549770305 297.0903522205207 60.8728943338438 298.23889739663093 Q 61.6385911179173 299.38744257274124 62.40428790199081 300.91883614088823 Q 63.169984686064325 302.4502297090352 63.552833078101074 303.2159264931088 Q 63.93568147013782 303.9816232771823 65.46707503828483 305.5130168453293 Q 66.99846860643184 307.04441041347627 71.20980091883614 310.1071975497703 Q 75.42113323124043 313.16998468606437 77.71822358346095 314.70137825421136 Q 80.01531393568148 316.23277182235836 81.16385911179174 317.3813169984686 Q 82.312404287902 318.5298621745789 84.22664624808576 319.2955589586524 Q 86.14088820826952 320.0612557427259 86.90658499234303 320.8269525267994 Q 87.67228177641654 321.5926493108729 88.05513016845329 322.7411944869832 Q 88.43797856049004 323.88973966309345 91.11791730474732 326.5696784073507 Q 93.79785604900461 329.249617151608 98.7748851454824 334.2266462480858 Q 103.7519142419602 339.2036753445636 106.81470137825421 342.2664624808576 Q 109.87748851454823 345.3292496171516 113.32312404287902 348.39203675344567 Q 116.7687595712098 351.4548238897397 118.68300153139357 352.60336906584996 Q 120.59724349157734 353.7519142419602 121.36294027565086 354.5176110260337 Q 122.12863705972437 355.28330781010726 124.42572741194488 355.28330781010726 Q 126.72281776416538 355.28330781010726 131.3169984686064 352.9862174578867 Q 135.91117917304746 350.6891271056662 139.739663093415 348.3920367534457 Q 143.56814701378255 346.0949464012252 145.86523736600307 343.4150076569679 Q 148.1623277182236 340.7350689127106 150.45941807044412 338.0551301684533 Q 152.75650842266464 335.37519142419603 153.52220520673814 332.31240428790204 Q 154.28790199081163 329.249617151608 155.05359877488516 325.8039816232772 Q 155.8192955589587 322.35834609494646 155.8192955589587 319.2955589586524 Q 155.8192955589587 316.23277182235836 155.8192955589587 313.93568147013787 Q 155.8192955589587 311.6385911179173 155.8192955589587 310.1071975497703 Q 155.8192955589587 308.5758039816233 155.8192955589587 305.895865237366 Q 155.8192955589587 303.2159264931088 155.8192955589587 301.6845329249618 Q 155.8192955589587 300.15313935681473 155.8192955589587 297.8560490045942 Q 155.8192955589587 295.5589586523737 155.8192955589587 294.7932618683002 Q 155.8192955589587 294.0275650842267 155.8192955589587 293.2618683001532 Q 155.8192955589587 292.49617151607964 156.58499234303218 292.49617151607964 Q 157.35068912710568 292.49617151607964 160.03062787136295 294.41041347626344 Q 162.71056661562022 296.3246554364472 165.77335375191424 301.68453292496173 Q 168.83614088820826 307.04441041347627 173.04747320061256 312.7871362940276 Q 177.25880551301685 318.5298621745789 181.8529862174579 325.0382848392037 Q 186.44716692189894 331.54670750382854 188.3614088820827 334.60949464012253 Q 190.2756508422665 337.6722817764166 192.572741194487 340.3522205206739 Q 194.86983154670753 343.0321592649311 196.40122511485455 345.71209800918837 Q 197.93261868300158 348.39203675344567 198.69831546707508 351.83767228177646 Q 199.46401225114857 355.28330781010726 200.61255742725882 361.02603369065855 Q 201.76110260336907 366.76875957120984 202.90964777947934 371.74578866768763 Q 204.05819295558962 376.7228177641654 205.20673813169986 380.9341500765697 Q 206.3552833078101 385.145482388974 207.12098009188364 388.20826952526807 Q 207.88667687595716 391.27105666156206 209.0352220520674 393.9509954058193 Q 210.18376722817766 396.6309341500766 211.71516079632468 398.92802450229715 Q 213.2465543644717 401.22511485451764 214.0122511485452 401.99081163859114 Q 214.7779479326187 402.75650842266464 216.30934150076573 402.75650842266464 Q 217.84073506891275 402.75650842266464 221.66921898928027 402.75650842266464 Q 225.49770290964778 402.75650842266464 228.17764165390508 402.75650842266464 Q 230.85758039816238 402.75650842266464 233.9203675344564 402.75650842266464 Q 236.98315467075042 402.75650842266464 239.28024502297095 402.75650842266464 Q 241.57733537519147 402.75650842266464 242.34303215926496 402.75650842266464 Q 243.10872894333846 402.75650842266464 244.25727411944874 402.75650842266464 Q 245.405819295559 402.75650842266464 249.23430321592653 402.75650842266464 Q 253.06278713629405 402.75650842266464 258.4226646248086 401.6079632465544 Q 263.78254211332313 400.45941807044414 266.8453292496172 398.16232771822365 Q 269.9081163859112 395.8652373660031 270.290964777948 395.0995405819296 Q 270.6738131699847 394.3338437978561 271.0566615620215 393.56814701378255 Q 271.4395099540582 392.80245022970905 271.822358346095 390.50535987748856 Q 272.2052067381317 388.208269525268 272.2052067381317 384.7626339969372 Q 272.2052067381317 381.31699846860647 272.2052067381317 375.5742725880552 Q 272.2052067381317 369.8315467075039 272.2052067381317 363.32312404287904 Q 272.2052067381317 356.81470137825426 271.822358346095 353.36906584992346 Q 271.4395099540582 349.92343032159266 269.90811638591117 346.8606431852986 Q 268.3767228177642 343.7978560490046 266.8453292496172 340.73506891271063 Q 265.3139356814702 337.6722817764166 264.5482388973967 336.5237366003063 Q 263.78254211332313 335.37519142419603 263.01684532924963 333.4609494640123 Q 262.25114854517614 331.54670750382854 261.1026033690659 329.24961715160805 Q 259.95405819295564 326.9525267993875 258.80551301684534 323.88973966309345 Q 257.6569678407351 320.8269525267994 257.27411944869834 318.91271056661566 Q 256.8912710566616 316.9984686064319 256.50842266462485 316.23277182235836 Q 256.1255742725881 315.46707503828486 256.1255742725881 315.0842266462481 Q 256.1255742725881 314.70137825421136 257.6569678407351 314.70137825421136 Q 259.1883614088821 314.70137825421136 263.01684532924963 314.70137825421136 Q 266.8453292496172 314.70137825421136 272.58805513016847 314.70137825421136 Q 278.33078101071976 314.70137825421136 284.45635528330786 315.46707503828486 Q 290.5819295558959 316.23277182235836 298.23889739663093 318.9127105666156 Q 305.895865237366 321.5926493108729 317.76416539050535 323.5068912710567 Q 329.63246554364474 325.42113323124045 333.07810107197554 325.8039816232772 Q 336.52373660030634 326.18683001531394 336.9065849923431 326.18683001531394 Q 337.28943338437983 326.18683001531394 338.05513016845333 326.18683001531394 Q 338.82082695252683 326.18683001531394 339.2036753445636 323.88973966309345 Q 339.5865237366003 321.5926493108729 340.3522205206739 318.1470137825421 Q 341.1179173047474 314.70137825421136 341.1179173047474 311.2557427258806 Q 341.1179173047474 307.8101071975498 341.1179173047474 302.83307810107203 Q 341.1179173047474 297.85604900459424 341.1179173047474 294.41041347626344 Q 341.1179173047474 290.96477794793265 341.1179173047474 285.98774885145485 Q 341.1179173047474 281.01071975497706 340.3522205206739 271.4395099540582 Q 339.5865237366003 261.8683001531394 337.6722817764165 258.03981623277184 Q 335.7580398162328 254.2113323124043 334.2266462480858 251.91424196018377 Q 332.6952526799388 249.61715160796325 332.6952526799388 248.468606431853 Q 332.6952526799388 247.32006125574276 330.78101071975505 244.25727411944874 Q 328.86676875957124 241.19448698315472 328.10107197549775 240.42879019908122 Q 327.33537519142425 239.6630934150077 326.9525267993875 237.36600306278717 Q 326.56967840735075 235.06891271056665 325.42113323124045 229.70903522205208 Q 324.2725880551302 224.34915773353754 323.88973966309345 218.60643185298625 Q 323.5068912710567 212.86370597243493 323.5068912710567 207.12098009188364 Q 323.5068912710567 201.37825421133235 323.5068912710567 196.01837672281778 Q 323.5068912710567 190.65849923430324 320.0612557427259 181.0872894333844 Q 316.6156202143951 171.51607963246556 312.7871362940276 164.24196018376725 Q 308.9586523736601 156.96784073506893 305.895865237366 150.8422664624809 Q 302.83307810107203 144.71669218989283 299.770290964778 140.12251148545178 Q 296.70750382848394 135.52833078101074 294.41041347626344 130.9341500765697 Q 292.1133231240429 126.33996937212864 290.19908116385915 123.27718223583462 Q 288.2848392036754 120.2143950995406 282.5421133231241 116.38591117917306 Q 276.79938744257277 112.55742725880552 272.2052067381317 109.11179173047474 Q 267.6110260336907 105.66615620214395 264.5482388973967 102.22052067381317 Q 261.48545176110264 98.77488514548239 257.27411944869834 96.09494640122512 Q 253.06278713629405 93.41500765696784 249.61715160796328 91.50076569678407 Q 246.1715160796325 89.58652373660031 240.81163859111794 86.90658499234303 Q 235.45176110260337 84.22664624808576 232.38897396630935 82.69525267993875 Q 229.32618683001533 81.16385911179174 227.41194486983156 80.39816232771823 Q 225.49770290964778 79.63246554364471 222.8177641653905 78.1010719754977 Q 220.13782542113324 76.5696784073507 217.84073506891272 74.65543644716692 Q 215.5436447166922 72.74119448698316 212.48085758039818 70.82695252679939 Q 209.41807044410416 68.91271056661562 205.5895865237366 66.61562021439511 Q 201.76110260336907 64.31852986217459 197.93261868300155 62.78713629402757 Q 194.10413476263403 61.25574272588055 191.8070444104135 58.57580398162328 Q 189.509954058193 55.89586523736601 186.0643185298622 53.21592649310873 Q 182.6186830015314 50.535987748851454 179.55589586523737 48.23889739663093 Q 176.49310872894335 45.94180704441041 175.3445635528331 44.793261868300156 Q 174.19601837672286 43.6447166921899 173.81316998468608 42.87901990811639 Q 173.4303215926493 42.11332312404288 173.04747320061256 41.73047473200613 Q 172.6646248085758 41.34762633996938 172.6646248085758 41.73047473200613 Q 172.6646248085758 42.11332312404288 171.8989280245023 43.644716692189895 Q 171.1332312404288 45.17611026033691 170.75038284839206 46.32465543644717 L 170.3665344563553 47.47420061255743" stroke-linecap="round" />
</g>
</svg>